<svg xmlns="http://www.w3.org/2000/svg" viewBox="0 0 160 160" fill="none">
  <rect width="160" height="160" rx="26" fill="#0B0F1A" stroke="#5AA7FF" stroke-width="4"/>
  <path d="M52 74c0-16.57 14.33-30 32-30s32 13.43 32 30c0 9.12-4.52 17.2-11.74 22.62-.67.5-1.16 1.25-1.26 2.07l-.8 6.5c-.33 2.7-2.63 4.81-5.36 4.81H70.66c-2.73 0-5.03-2.11-5.36-4.81l-.8-6.5c-.1-.82-.59-1.57-1.26-2.07C56.52 91.2 52 83.12 52 74Z" fill="#0B1626" stroke="#5AA7FF" stroke-width="4" stroke-linecap="round" stroke-linejoin="round"/>
  <path d="M76 64c3-3.33 7.67-5.33 12-5.33M68 74c4-4.67 10.67-7 16-7M66 83c6.67-5 14.67-6.33 22-6.33M96 96a6 6 0 1 1-12 0" stroke="#8BC4FF" stroke-width="4" stroke-linecap="round"/>
  <circle cx="62" cy="112" r="7" fill="#5AA7FF"/>
  <circle cx="48" cy="118" r="5" fill="#5AA7FF" opacity=".7"/>
  <circle cx="42" cy="106" r="4" fill="#5AA7FF" opacity=".4"/>
</svg>
